<?xml version="1.0" encoding="UTF-8"?>
<svg version="1.1" xmlns="http://www.w3.org/2000/svg" width="104" height="104">
<path d="M0 0 C2.51953125 1.77734375 2.51953125 1.77734375 4.8125 3.9375 C5.58207031 4.64777344 6.35164063 5.35804687 7.14453125 6.08984375 C11.20080325 10.26566903 10.37977972 15.42015888 10.30078125 20.93359375 C10.03681657 26.6392919 8.18448534 31.76308649 6 37 C5.34 37 4.68 37 4 37 C3.62875 38.546875 3.62875 38.546875 3.25 40.125 C2.1642896 43.93274148 0.44759325 46.86402115 -2 50 C-2.66 50 -3.32 50 -4 50 C-4.27328125 50.57234375 -4.5465625 51.1446875 -4.828125 51.734375 C-9.4578594 60.68519485 -15.97795319 68.9814087 -22.80078125 76.359375 C-24.13485022 77.94343356 -24.13485022 77.94343356 -24.40234375 80.0078125 C-25.25492785 82.84975951 -26.77838428 83.56182582 -29.25 85.125 C-30.01828125 85.62257813 -30.7865625 86.12015625 -31.578125 86.6328125 C-37.94172185 90.22516556 -37.94172185 90.22516556 -41.9375 89.375 C-45.26332299 87.88177335 -48.09998745 86.20953337 -51 84 C-51 83.34 -51 82.68 -51 82 C-51.515625 81.896875 -52.03125 81.79375 -52.5625 81.6875 C-61.31428571 79.21904762 -61.31428571 79.21904762 -63.125 76 C-63.41375 75.34 -63.7025 74.68 -64 74 C-65.63631892 72.95107762 -67.30485863 71.95093297 -69 71 C-70.5 69.625 -70.5 69.625 -72 68 C-72.763125 67.29875 -73.52625 66.5975 -74.3125 65.875 C-77.16674518 62.82162144 -79.26723946 59.64257765 -81.515625 56.13671875 C-83.05551356 53.77675229 -83.05551356 53.77675229 -85.75 51.3125 C-88.35921652 48.63080524 -88.96330574 46.55438031 -90 43 C-90.50402344 42.25105469 -91.00804688 41.50210938 -91.52734375 40.73046875 C-94.6628612 34.91687008 -93.68303215 27.49751212 -92.44921875 21.1796875 C-89.75527483 13.03401821 -83.38381591 7.48921462 -76.0625 3.33203125 C-66.60671597 -0.78075237 -57.55804326 -0.52654012 -48 3 C-43.27246603 4.98170163 -40.14890584 7.19656341 -38 12 C-38 12.66 -38 13.32 -38 14 C-32.88982404 11.86085658 -30.49351905 9.21013834 -27 5 C-22.89437477 3.0066892 -18.46808566 1.94559863 -14.0625 0.8125 C-13.02706055 0.52729492 -13.02706055 0.52729492 -11.97070312 0.23632812 C-7.63460971 -0.87749303 -4.3039045 -1.32242876 0 0 Z M-21 15 C-23.25 16.25 -23.25 16.25 -25 17 C-25 17.33 -25 17.66 -25 18 C-24.21625 18.061875 -23.4325 18.12375 -22.625 18.1875 C-21.75875 18.455625 -20.8925 18.72375 -20 19 C-18.6875 21.5625 -18.6875 21.5625 -18 24 C-18.99 24.33 -19.98 24.66 -21 25 C-19.05649404 26.2537118 -19.05649404 26.2537118 -17.0546875 25.44140625 C-16.33539063 25.15136719 -15.61609375 24.86132812 -14.875 24.5625 C-14.15054688 24.27503906 -13.42609375 23.98757812 -12.6796875 23.69140625 C-12.12539062 23.46324219 -11.57109375 23.23507813 -11 23 C-8.8480563 26.22791555 -8.79913557 27.28400809 -9 31 C-9.59329102 31.11786865 -10.18658203 31.2357373 -10.79785156 31.35717773 C-14.32395682 32.3864721 -16.92192209 34.80314545 -19.75 37.0625 C-20.35199219 37.53494141 -20.95398438 38.00738281 -21.57421875 38.49414062 C-23.05409943 39.65690401 -24.52768096 40.8276766 -26 42 C-22.79377554 43.04116106 -22.27558967 43.13486303 -19.0625 41.5625 C-17.5465625 40.7890625 -17.5465625 40.7890625 -16 40 C-14.33378384 39.96125079 -12.66605828 39.9549714 -11 40 C-6.7735669 37.18237793 -6.19070951 33.7959133 -5 29 C-4.74341682 26.12267563 -4.74341682 26.12267563 -5 24 C-4.34 24 -3.68 24 -3 24 C-3.14168137 22.56208484 -3.28851043 21.1246763 -3.4375 19.6875 C-3.51871094 18.88699219 -3.59992188 18.08648437 -3.68359375 17.26171875 C-3.95265693 14.83912821 -3.95265693 14.83912821 -5 12 C-11.60732601 10.398224 -16.34540314 9.54288643 -21 15 Z M-67.30859375 18.62109375 C-70.23897553 21.0100655 -73.58476109 22.4101474 -77 24 C-77 24.33 -77 24.66 -77 25 C-68.38491243 24.17951547 -60.28559744 22.4680503 -52 20 C-54.04004397 16.93993405 -54.69269325 16.22842822 -58 15 C-62.39959501 14.18954829 -64.11422353 15.69361608 -67.30859375 18.62109375 Z M-61 28 C-62.66286404 28.35181256 -64.33008621 28.68333487 -66 29 C-67.94150923 29.50568324 -69.87907653 30.02673205 -71.8125 30.5625 C-73.27623047 30.96662109 -73.27623047 30.96662109 -74.76953125 31.37890625 C-75.50558594 31.58386719 -76.24164063 31.78882813 -77 32 C-76.28798388 33.66137094 -75.57481462 35.32225831 -74.85546875 36.98046875 C-74.29356901 38.30696265 -73.75365366 39.64302712 -73.23828125 40.98828125 C-72.57157286 42.69209159 -71.79172873 44.35056514 -71 46 C-70.01 46.33 -69.02 46.66 -68 47 C-68 47.66 -68 48.32 -68 49 C-65.36315253 51.39820305 -65.36315253 51.39820305 -62 52 C-61.62875 52.85851563 -61.62875 52.85851563 -61.25 53.734375 C-59.80683801 56.35010611 -58.11783778 58.14773456 -56 60.25 C-55.29875 60.95640625 -54.5975 61.6628125 -53.875 62.390625 C-52.15889232 64.21710399 -52.15889232 64.21710399 -50 64 C-50 64.66 -50 65.32 -50 66 C-45.94220256 70.53881294 -41.90435042 72.79503053 -36 74 C-35.34 73.34 -34.68 72.68 -34 72 C-34.33 71.01 -34.66 70.02 -35 69 C-36.65 69 -38.3 69 -40 69 C-40.66 67.68 -41.32 66.36 -42 65 C-41.34 64.38125 -40.68 63.7625 -40 63.125 C-37.7715451 61.24362573 -37.7715451 61.24362573 -38 59 C-37.38125 58.731875 -36.7625 58.46375 -36.125 58.1875 C-33.7004767 57.04443152 -33.7004767 57.04443152 -32 54 C-33.43931117 54.45261358 -34.87638999 54.91232979 -36.3125 55.375 C-37.51326172 55.75785156 -37.51326172 55.75785156 -38.73828125 56.1484375 C-41.22724528 56.98831811 -41.22724528 56.98831811 -44 59 C-46.6875 58.625 -46.6875 58.625 -49 58 C-48.59102482 53.1009995 -46.60793633 51.3004017 -42.9375 48.1875 C-42.01839844 47.39730469 -41.09929688 46.60710938 -40.15234375 45.79296875 C-39.44207031 45.20128906 -38.73179688 44.60960938 -38 44 C-42.65451801 44 -46.0656325 46.58605196 -50.08984375 48.78515625 C-53 50 -53 50 -55.37890625 49.68359375 C-56.18134766 49.34521484 -56.18134766 49.34521484 -57 49 C-57 45.89448334 -56.4606285 44.64738916 -55 42 C-56.546875 42.4640625 -56.546875 42.4640625 -58.125 42.9375 C-61.38972557 43.87502812 -64.63613462 44.50772702 -68 45 C-68 44.34 -68 43.68 -68 43 C-68.66 43 -69.32 43 -70 43 C-69.505 42.21625 -69.01 41.4325 -68.5 40.625 C-66.83462035 38.21447673 -66.83462035 38.21447673 -67 36 C-66.443125 35.731875 -65.88625 35.46375 -65.3125 35.1875 C-59.9680345 32.44304475 -55.26107278 29.26107278 -51 25 C-54.87624922 25 -57.4560707 26.47244427 -61 28 Z M-21 53 C-22.32 53.99 -23.64 54.98 -25 56 C-24.67 56.66 -24.34 57.32 -24 58 C-22.68 57.01 -21.36 56.02 -20 55 C-20.33 54.34 -20.66 53.68 -21 53 Z " fill="#FFA8A8" transform="translate(93,8)"/>
</svg>
