<?xml version="1.0" encoding="UTF-8"?>
<svg version="1.1" xmlns="http://www.w3.org/2000/svg" width="2750" height="700">
<path d="M0 0 C0 1.98 0 3.96 0 6 C-5.80999477 9.0162526 -11.63114321 11.72745091 -17.73828125 14.0859375 C-20.2337257 15.05643474 -20.2337257 15.05643474 -23.4375 16.75 C-26 18 -26 18 -29 18 C-29.0145394 18.74247293 -29.02907881 19.48494587 -29.0440588 20.24991798 C-29.40000719 38.41685817 -29.75911949 56.58373338 -30.12164211 74.75054359 C-30.29688956 83.53630316 -30.47111299 92.32208067 -30.64282227 101.10791016 C-30.79269661 108.77637506 -30.94459762 116.44479686 -31.09881264 124.11317575 C-31.18020389 128.16373803 -31.26066175 132.21431344 -31.33868217 136.26494217 C-31.67172399 153.52184688 -32.07916076 170.76212916 -33 188 C-31.68 187.67 -30.36 187.34 -29 187 C-23.25 190.625 -23.25 190.625 -21 194 C-20.07989818 198.89363889 -20.13504355 203.27737607 -22.390625 207.76953125 C-25.52525072 212.31473855 -29.08690017 216.11466978 -33 220 C-33.26281942 231.21466721 -33.52373603 242.42937699 -33.78230286 253.6441431 C-33.9024568 258.85303452 -34.02323693 264.06190977 -34.14550781 269.27075195 C-34.2637441 274.30874171 -34.3802576 279.34676877 -34.49563599 284.38482475 C-34.53968454 286.29549995 -34.58432718 288.20616155 -34.62960815 290.11680794 C-34.88900554 301.08054224 -35.06607288 312.03288577 -35 323 C-34.27554688 322.20335937 -33.55109375 321.40671875 -32.8046875 320.5859375 C-27.97048718 315.28310293 -23.14492063 310.00586872 -18 305 C-16.68 305.33 -15.36 305.66 -14 306 C-15.49820494 314.31321034 -24.81472838 320.8808861 -30.64453125 326.58203125 C-34.27481849 330.30864452 -35.25205904 332.43985978 -35.4140625 337.54296875 C-35.45273438 338.61611328 -35.49140625 339.68925781 -35.53125 340.79492188 C-35.57765625 342.47424805 -35.57765625 342.47424805 -35.625 344.1875 C-35.66367188 345.31865234 -35.70234375 346.44980469 -35.7421875 347.61523438 C-35.83652533 350.4099925 -35.92211652 353.20474278 -36 356 C-36.33 356.33 -36.66 356.66 -37 357 C-37.65484375 356.99363525 -38.3096875 356.98727051 -38.984375 356.98071289 C-41.99070585 356.97195504 -44.99402254 357.01684421 -48 357.0625 C-49.02996094 357.05154297 -50.05992187 357.04058594 -51.12109375 357.02929688 C-57.93728064 357.18125009 -61.51658397 358.32669215 -66.33691406 363.20239258 C-66.88573242 363.79560303 -67.43455078 364.38881348 -68 365 C-74.38585096 370.76632811 -79.25915781 374.25609854 -88 375 C-90.475 373.515 -90.475 373.515 -93 372 C-93.22566098 370.62773731 -93.42959874 369.25189728 -93.625 367.875 C-93.74101562 367.10929687 -93.85703125 366.34359375 -93.9765625 365.5546875 C-94 363 -94 363 -92 357 C-97.28 357 -102.56 357 -108 357 C-108 348.75 -108 340.5 -108 332 C-109.340625 333.299375 -110.68125 334.59875 -112.0625 335.9375 C-130.86390006 352.75563002 -156.08407901 360.18943963 -181 361 C-181.98355469 361.03996094 -182.96710938 361.07992188 -183.98046875 361.12109375 C-216.72719904 361.81263961 -248.92426674 351.21073749 -272.7644043 328.37792969 C-296.56802504 304.75538547 -304.18666874 275.60154457 -307 243 C-308.11117188 242.86335937 -309.22234375 242.72671875 -310.3671875 242.5859375 C-314.09108333 241.98530914 -315.24238565 241.38993243 -318 239 C-319.65661761 237.98343919 -321.32111559 236.97934924 -323 236 C-323.60025004 224.90649001 -322.77042586 214.11018468 -315.23046875 205.4609375 C-314.49441406 204.64882813 -313.75835938 203.83671875 -313 203 C-312.01266891 201.82909821 -311.02994522 200.65430254 -310.05078125 199.4765625 C-308.99306218 198.21280908 -307.93446533 196.94978981 -306.875 195.6875 C-306.37234619 195.0881665 -305.86969238 194.48883301 -305.35180664 193.87133789 C-302.45933397 190.49179204 -299.48537232 187.78253691 -296 185 C-294.06678695 182.69713811 -294.06678695 182.69713811 -292.3125 180.125 C-291.62285156 179.155625 -290.93320313 178.18625 -290.22265625 177.1875 C-288.70101648 175.00532417 -287.18874032 172.81841075 -285.68359375 170.625 C-270.99069844 149.38800962 -253.1222625 133.84829432 -229.57470703 123.18603516 C-224.71829061 120.94438258 -220.71638032 118.70519827 -216.93945312 114.84082031 C-209.41661254 107.70056125 -200.00968477 102.22385563 -191.4375 96.4375 C-182.53991291 90.42273564 -182.53991291 90.42273564 -173.71875 84.296875 C-169.55826809 81.37307915 -165.3412716 78.55959386 -161.0625 75.8125 C-159.99612305 75.12474487 -159.99612305 75.12474487 -158.90820312 74.4230957 C-152.5274999 70.31735432 -146.11264354 66.2655427 -139.68383789 62.2355957 C-136.01548455 59.93076463 -132.38876306 57.59001556 -128.8125 55.14453125 C-122.7109579 51.15772817 -116.32826058 47.6161489 -110 44 C-109.34 29.15 -108.68 14.3 -108 -1 C-104.24753906 -0.855625 -100.49507812 -0.71125 -96.62890625 -0.5625 C-92.90181482 -0.42238114 -89.17466666 -0.28387313 -85.44750977 -0.14550781 C-82.90219912 -0.05017663 -80.3569483 0.04676878 -77.81176758 0.14550781 C-64.59598099 0.65712033 -51.37788985 1.10708971 -38.15234375 1.25 C-36.63562828 1.28202515 -36.63562828 1.28202515 -35.08827209 1.31469727 C-28.97362746 1.34323022 -24.60435745 0.4472833 -19 -2 C-12.13132764 -3.34491487 -6.22742771 -3.45968206 0 0 Z M-115 66.1875 C-118.46635596 68.41938596 -121.92743494 70.55566288 -125.5625 72.5 C-129.77776783 74.79172315 -133.63689547 77.46445308 -137.5390625 80.25 C-142.25748659 83.6053238 -147.11368146 86.75827773 -151.94921875 89.94140625 C-156.42603357 92.90160877 -160.87477456 95.84502805 -165.125 99.125 C-168.78903823 101.94584952 -172.67824374 104.23901001 -176.703125 106.5078125 C-179.14661746 108.09525148 -181.01395869 109.87730447 -183 112 C-182.4330542 112.01458252 -181.8661084 112.02916504 -181.28198242 112.04418945 C-157.44052431 112.72304373 -135.48146518 115.91717374 -113.66015625 125.86328125 C-111.17561989 127.13098042 -111.17561989 127.13098042 -109 127 C-109 105.88 -109 84.76 -109 63 C-111.11109584 63 -113.3227379 65.0949501 -115 66.1875 Z M-117.53515625 169.4453125 C-120.47173017 172.56199629 -121.11149664 176.91600211 -122 181 C-116.99081256 179.52670958 -114.48192278 176.72484762 -111 173 C-111 171.02 -111 169.04 -111 167 C-113.64167057 167 -115.37105977 167.9955266 -117.53515625 169.4453125 Z M-163.25 186.8125 C-164.58898334 187.37055852 -165.92882564 187.92656067 -167.26953125 188.48046875 C-167.91229004 188.74649902 -168.55504883 189.0125293 -169.21728516 189.28662109 C-171.42724217 190.17096708 -173.66592444 190.91538041 -175.9375 191.625 C-179.452708 192.73749092 -182.57649293 194.22346199 -185.78515625 196.03515625 C-188 197 -188 197 -191.78125 197.875 C-196.10402764 198.90309037 -199.60806389 200.73284109 -203.4375 202.9375 C-208.85126907 205.94958078 -214.00544752 208.3173186 -220 210 C-228.05177656 222.56077143 -229.89984637 238.33383441 -227 252.8125 C-226.67974494 254.21139188 -226.35175228 255.60869409 -226 257 C-216.7936039 255.69643949 -209.94676496 248.14633646 -203.38671875 242.0703125 C-200.71556441 239.75327191 -197.98235322 237.95781564 -194.88671875 236.265625 C-192.81052469 234.96291251 -192.81052469 234.96291251 -190.6796875 232.66015625 C-187.81060497 229.8119854 -184.74050174 227.49137474 -181.4375 225.1875 C-180.52158081 224.54010864 -180.52158081 224.54010864 -179.5871582 223.87963867 C-175.66520642 221.12151604 -171.69123395 218.45085801 -167.6875 215.8125 C-163.33367972 212.94267417 -159.21811917 209.89606178 -155.14453125 206.64453125 C-152.99229298 204.99408988 -150.78298201 203.52534339 -148.5 202.0625 C-143.56688344 198.85205906 -139.29875522 195.00404151 -135 191 C-137.65554859 188.34445141 -140.28217644 187.63926247 -143.8125 186.375 C-145.03582031 185.92898438 -146.25914062 185.48296875 -147.51953125 185.0234375 C-153.70980129 183.20317852 -157.43768817 184.31322793 -163.25 186.8125 Z M-117.375 202.5625 C-120.90075734 205.42311447 -124.4293176 207.96320316 -128.3125 210.3125 C-133.43504024 213.47042964 -137.90466321 217.12819464 -142.40942383 221.09301758 C-145.77871007 224.04559449 -149.2629755 226.53842742 -153 229 C-154.7681853 230.41507137 -156.518304 231.85300172 -158.25 233.3125 C-162.58340049 236.89916798 -167.01416741 240.20193089 -171.65625 243.375 C-173.88526308 244.92044907 -176.0379606 246.53400815 -178.1875 248.1875 C-181.63702669 250.8080162 -185.19252589 252.93761819 -189 255 C-183.5669944 256.81100187 -176.1809183 252.32005631 -171 250 C-168.5298435 248.63259194 -166.17398846 247.15618193 -163.79296875 245.640625 C-158.059959 242.27298291 -151.93762134 239.62331323 -145.89404297 236.86474609 C-144.3337578 236.15238079 -142.77762276 235.43093268 -141.22265625 234.70703125 C-137.67090718 233.07784582 -134.17300959 231.71285998 -130.4375 230.5625 C-126.54566328 229.32172279 -123.38998237 227.5722756 -120.01953125 225.28125 C-117.46078292 223.65790483 -114.71034205 222.35517103 -112 221 C-112 213.74 -112 206.48 -112 199 C-114.02426591 199 -115.92151312 201.35431769 -117.375 202.5625 Z M-133.375 252.9375 C-138.54832286 256.56613812 -144.15052947 258.69016865 -150 261 C-152.18968355 261.95187274 -154.36427091 262.93263899 -156.5390625 263.91796875 C-158.41630941 264.74336144 -160.31028688 265.53080965 -162.2109375 266.30078125 C-169.44989931 269.26508018 -175.89034205 272.68109181 -182.46875 276.8984375 C-188.9580137 280.90317541 -196.05901398 283.87447815 -203 287 C-192.76443695 295.44494446 -179.45780564 294.47358078 -167 294 C-166.37996094 293.39414062 -165.75992187 292.78828125 -165.12109375 292.1640625 C-158.67462015 286.06477889 -151.94506107 281.12697401 -144.5078125 276.3046875 C-140.91804127 273.97200486 -137.51833907 271.46516752 -134.19140625 268.76953125 C-132.54162221 267.43735269 -130.8551626 266.15040188 -129.15234375 264.88671875 C-123.19404656 260.34145647 -118.86950082 256.44809125 -117 249 C-117 248.01 -117 247.02 -117 246 C-122.78666143 246 -128.78280143 249.6885405 -133.375 252.9375 Z " fill="#FEA8A8" transform="translate(2165,175)"/>
<path d="M0 0 C9.23472947 1.39712372 18.30187079 3.35207356 27.390625 5.4765625 C28.83071559 5.81032982 30.27088226 6.14376904 31.71112061 6.47689819 C35.46001011 7.34493174 39.20786514 8.21735026 42.95550537 9.09075928 C46.79653204 9.98508818 50.63854367 10.87516503 54.48046875 11.765625 C61.98793674 13.50631121 69.49431451 15.25164186 77 17 C78.40522252 21.51436297 77.18018818 25.14690302 75.96484375 29.58203125 C75.73544601 30.44677567 75.50604828 31.31152008 75.2696991 32.20246887 C74.50324763 35.07554561 73.72129959 37.94411073 72.9375 40.8125 C72.66879089 41.80650818 72.40008179 42.80051636 72.12322998 43.824646 C19.16577917 239.69974482 19.16577917 239.69974482 -60.625 326.75 C-84.26997871 339.94865214 -113.40066876 340.21871932 -139 333 C-139.81919922 332.76925781 -140.63839844 332.53851562 -141.48242188 332.30078125 C-159.65005598 327.00597347 -177.63770164 319.51642776 -194 310 C-194 306.72689277 -193.40141093 305.44043572 -191.9453125 302.5625 C-191.27810181 301.23472534 -191.27810181 301.23472534 -190.59741211 299.88012695 C-190.11151611 298.92968506 -189.62562012 297.97924316 -189.125 297 C-188.62685791 296.01539795 -188.12871582 295.0307959 -187.61547852 294.01635742 C-183.25841727 285.43405794 -178.79228173 276.91048208 -174.27783203 268.41015625 C-171.96611085 264.04995153 -169.67184256 259.68055483 -167.375 255.3125 C-166.52871635 253.70438997 -165.68236905 252.09631344 -164.8359375 250.48828125 C-164.23007813 249.33714844 -163.62421875 248.18601562 -163 247 C-158.19088983 248.71753935 -153.91925609 251.23082402 -149.5 253.75 C-130.43953358 264.94772146 -130.43953358 264.94772146 -109 267 C-91.47629984 261.31542805 -83.8121908 244.83921324 -75 230 C-75.88178008 225.96334644 -77.73519205 222.88861261 -79.9375 219.4375 C-80.57655273 218.42429687 -80.57655273 218.42429687 -81.22851562 217.390625 C-86.08922428 209.74951098 -91.15255461 202.24034723 -96.19430542 194.71810913 C-101.13943921 187.33927113 -106.00351449 179.92600797 -110.6628418 172.36230469 C-113.68386985 167.46757355 -116.84429244 162.6792449 -120.05200195 157.90527344 C-123.47813561 152.80069701 -126.84200387 147.65774497 -130.1875 142.5 C-130.73140381 141.66154541 -131.27530762 140.82309082 -131.83569336 139.95922852 C-132.97074482 138.20933694 -134.10575368 136.45941773 -135.24072266 134.70947266 C-138.27852075 130.0309432 -141.32685393 125.35929161 -144.375 120.6875 C-145.00108154 119.72779297 -145.62716309 118.76808594 -146.2722168 117.77929688 C-147.54568894 115.8272807 -148.81920795 113.87529511 -150.09277344 111.92333984 C-152.60554065 108.0718454 -155.11765893 104.21992799 -157.62963867 100.36791992 C-158.87703839 98.45521864 -160.12459712 96.54262106 -161.37231445 94.63012695 C-164.51321493 89.81544369 -167.65160996 84.99916085 -170.78515625 80.1796875 C-172.0442222 78.24476002 -173.30333649 76.30986399 -174.5625 74.375 C-175.17295166 73.4355957 -175.78340332 72.49619141 -176.41235352 71.52832031 C-179.58673984 66.65524465 -182.79370016 61.8078134 -186.0546875 56.9921875 C-186.70622803 56.02748535 -187.35776855 55.0627832 -188.02905273 54.06884766 C-189.27506669 52.22843866 -190.52693437 50.39197544 -191.78540039 48.56005859 C-192.61672485 47.33150146 -192.61672485 47.33150146 -193.46484375 46.078125 C-193.955896 45.36043945 -194.44694824 44.64275391 -194.95288086 43.90332031 C-196 42 -196 42 -196 39 C-195.36835938 38.64921387 -194.73671875 38.29842773 -194.0859375 37.93701172 C-182.16420894 31.30834168 -170.27743215 24.6324816 -158.5 17.75 C-157.51298096 17.1734668 -156.52596191 16.59693359 -155.5090332 16.00292969 C-150.93370345 13.32390601 -146.36961511 10.62795723 -141.82421875 7.8984375 C-141.0353125 7.42696289 -140.24640625 6.95548828 -139.43359375 6.46972656 C-137.9808328 5.5999649 -136.53136336 4.72467128 -135.0859375 3.84277344 C-130.33427194 1 -130.33427194 1 -127 1 C-126.56880859 1.7120459 -126.13761719 2.4240918 -125.69335938 3.15771484 C-115.85149783 19.40406127 -105.95515121 35.61486698 -95.98388672 51.78222656 C-92.65229429 57.18591697 -89.32645301 62.59314491 -86 68 C-84.66669391 70.16668343 -83.33336058 72.3333501 -82 74.5 C-74 87.5 -74 87.5 -71.99780273 90.75366211 C-70.67190271 92.90818888 -69.34589458 95.06264913 -68.01977539 97.21704102 C-64.93446459 102.22967477 -61.85013515 107.24290261 -58.76986694 112.25863647 C-57.68995044 114.01699357 -56.60967625 115.7751304 -55.52929688 117.53320312 C-54.18223658 119.72547773 -52.83583067 121.91815463 -51.49023438 124.11132812 C-47.39014061 130.78201358 -43.22357401 137.40680688 -39 144 C-36.30932859 141.30932859 -35.64988321 138.26847439 -34.56640625 134.71484375 C-34.216101 133.58918251 -34.216101 133.58918251 -33.85871887 132.44078064 C-33.08502797 129.94215152 -32.32264826 127.44028063 -31.5625 124.9375 C-31.29777893 124.07022278 -31.03305786 123.20294556 -30.76031494 122.30938721 C-18.9789986 83.6301206 -9.20627838 44.4596878 -1.59570312 4.74267578 C-1 2 -1 2 0 0 Z " fill="#93CFC7" transform="translate(2610,287)"/>
<path d="M0 0 C-1.67366255 5.90704429 -4.51706101 11.10207339 -7.375 16.5 C-7.90013184 17.50015137 -8.42526367 18.50030273 -8.96630859 19.53076172 C-13.27437988 27.70521496 -17.68595724 35.82261287 -22.16552734 43.90429688 C-22.63941895 44.76345703 -23.11331055 45.62261719 -23.6015625 46.5078125 C-24.01744629 47.25691895 -24.43333008 48.00602539 -24.86181641 48.77783203 C-26.06927641 51.13525394 -27.05298701 53.52775758 -28 56 C-27.04738281 55.7834375 -26.09476563 55.566875 -25.11328125 55.34375 C-23.85902344 55.0653125 -22.60476562 54.786875 -21.3125 54.5 C-20.07113281 54.2215625 -18.82976563 53.943125 -17.55078125 53.65625 C-14.57601782 53.10645874 -12.00631398 52.86204295 -9 53 C-6.92889845 59.65043971 -5.64740767 66.42969804 -4.31030273 73.25976562 C-4.04587444 74.59922655 -3.78118852 75.93863664 -3.51626587 77.27799988 C-2.80078559 80.89930392 -2.08902993 84.52133072 -1.3780582 88.14352226 C-0.63174283 91.94294537 0.11768691 95.74175423 0.86668396 99.54064941 C2.12371547 105.91878491 3.3783929 112.29737995 4.6315918 118.67626953 C6.07835721 126.04031358 7.52850705 133.40368474 8.98055035 140.76668978 C10.38013391 147.86394937 11.77763546 154.96161728 13.17408562 162.05949402 C13.76714114 165.07378674 14.36086073 168.08794751 14.95511055 171.102005 C15.65531858 174.65410506 16.3536783 178.20656376 17.05064011 181.75930214 C17.42733901 183.67731081 17.80581022 185.59497113 18.18434143 187.51261902 C19.25836724 192.99655893 20.29436201 198.45573318 21 204 C12.09060632 205.43881869 3.18054687 206.87342079 -5.73038769 208.30266571 C-9.86820212 208.96647449 -14.00577383 209.63172551 -18.14282227 210.30029297 C-22.13635626 210.94561303 -26.13048619 211.58711784 -30.12505531 212.22599792 C-31.64786873 212.47023645 -33.17046359 212.71584177 -34.69283104 212.96284485 C-36.8274519 213.30894458 -38.96280276 213.65014761 -41.09838867 213.99023438 C-42.3130632 214.18564819 -43.52773773 214.38106201 -44.77922058 214.58239746 C-48 215 -48 215 -53 215 C-55.97 195.2 -55.97 195.2 -59 175 C-61.97 178.96 -64.94 182.92 -68 187 C-74.46734437 194.4348312 -81.39737398 200.21674716 -90 205 C-90.89976562 205.52207031 -91.79953125 206.04414062 -92.7265625 206.58203125 C-121.2897082 222.12258573 -158.95060976 220.90842551 -189.46875 212.4140625 C-195.63952108 210.56540233 -201.33212281 208.05193387 -207 205 C-208.01320313 204.47664062 -209.02640625 203.95328125 -210.0703125 203.4140625 C-229.33376532 192.92016109 -242.08543998 174.93263412 -248.23291016 154.11694336 C-258.75243143 115.33870811 -251.77900928 74.46084053 -232.11279297 39.88623047 C-229.41295497 35.30989253 -226.33922819 31.12561937 -223 27 C-222.55253418 26.44715332 -222.10506836 25.89430664 -221.64404297 25.32470703 C-196.14463367 -5.92080787 -158.92116674 -25.92202996 -118.78515625 -30.53125 C-75.65480738 -34.53561508 -35.7652282 -24.14152904 0 0 Z M-159 66 C-173.20380988 82.50647531 -178.52291823 100.5567674 -177 122 C-175.73274537 131.74730019 -172.07667627 141.01092109 -164.3125 147.375 C-153.21111659 154.70649524 -140.67838945 155.8815824 -127.78515625 153.375 C-112.34700644 148.41352861 -101.17276323 135.55089359 -93.78515625 121.640625 C-90.91842997 115.95882516 -88.81372426 110.0938387 -87 104 C-86.6803125 102.94941406 -86.360625 101.89882813 -86.03125 100.81640625 C-83.14942285 89.70269321 -83.71282412 78.39572785 -84 67 C-83.18583618 66.94283813 -83.18583618 66.94283813 -82.35522461 66.88452148 C-75.00051277 66.26630804 -67.81931139 64.93024619 -60.59301758 63.47094727 C-58.54342776 63.05866354 -56.49164129 62.65889026 -54.43945312 62.25976562 C-53.12745519 61.99814184 -51.81560047 61.73579855 -50.50390625 61.47265625 C-49.32642822 61.23812744 -48.1489502 61.00359863 -46.93579102 60.76196289 C-43.83895614 60.12944263 -43.83895614 60.12944263 -41 58 C-78.0659809 29.90159513 -126.56986984 31.70296517 -159 66 Z " fill="#93CFC7" transform="translate(2410,318)"/>
<path d="M0 0 C1.05409255 18.97366596 1 37.99707625 1 57 C44.23 57 87.46 57 132 57 C132 81.09 132 105.18 132 130 C89.76 130 47.52 130 4 130 C4.33 130.99 4.66 131.98 5 133 C5.13341707 134.43427345 5.21834707 135.87335873 5.27210999 137.31282043 C5.30714127 138.19387955 5.34217255 139.07493866 5.37826538 139.98269653 C5.41207306 140.94722748 5.44588074 141.91175842 5.48071289 142.90551758 C5.5198732 143.92400284 5.55903351 144.9424881 5.59938049 145.99183655 C5.72826394 149.37591681 5.85063422 152.76019713 5.97265625 156.14453125 C6.06063775 158.50893646 6.14889366 160.87333148 6.2374115 163.23771667 C6.4226168 168.21184373 6.60463774 173.18607459 6.78442383 178.16040039 C7.01288392 184.4752226 7.24881527 190.78973761 7.48720646 197.10419178 C7.67124314 202.00063759 7.85129104 206.89722425 8.03021049 211.79385948 C8.11554826 214.1174418 8.20203549 216.44098225 8.28978157 218.76447487 C8.84409175 233.51750946 9.1114811 248.2365033 9 263 C-2.22991318 263.91447452 -13.42636661 264.30905402 -24.6875 264.5625 C-25.57976288 264.58367889 -26.47202576 264.60485779 -27.3913269 264.62667847 C-42.59660122 264.98589566 -57.79033397 265.13204599 -73 265 C-74.17155808 261.48532577 -74.25527006 258.22288783 -74.37254333 254.5592804 C-74.40057149 253.79429157 -74.42859965 253.02930274 -74.45747715 252.24113244 C-74.5506766 249.66780461 -74.6374908 247.09430051 -74.72436523 244.52075195 C-74.78984549 242.67701869 -74.85572236 240.83329948 -74.92196655 238.98959351 C-75.06425193 235.00539539 -75.20369553 231.02111129 -75.34097099 227.03673744 C-75.55983912 220.68442388 -75.78491006 214.33233909 -76.01075745 207.98027039 C-76.36948388 197.8697481 -76.72391814 187.75908042 -77.07661349 177.64834613 C-77.70222782 159.71726636 -78.33486897 141.78643408 -78.96926266 123.855663 C-79.190507 117.59761283 -79.40989752 111.33950154 -79.62764627 105.08132881 C-79.79929469 100.15484357 -79.972496 95.22841368 -80.14624023 90.30200195 C-80.17976463 89.34877222 -80.21328903 88.39554248 -80.24782932 87.413427 C-80.64164988 76.26729643 -81.07068691 65.12334495 -81.55032349 53.9805603 C-81.59663023 52.89945305 -81.64293697 51.8183458 -81.69064695 50.70447773 C-81.91330626 45.52158624 -82.14028806 40.33894595 -82.37492275 35.15658283 C-82.86408263 24.09532313 -83.11834361 13.07198614 -83 2 C-79.34583809 0.78194603 -75.91935916 0.76766303 -72.109375 0.68359375 C-71.30835861 0.66276733 -70.50734222 0.64194092 -69.68205261 0.6204834 C-67.03813562 0.55402271 -64.39411944 0.49530743 -61.75 0.4375 C-60.84959991 0.41632111 -59.94919983 0.39514221 -59.02151489 0.37332153 C-39.34709568 -0.08609395 -19.67846038 -0.09757914 0 0 Z " fill="#93CFC7" transform="translate(1385,268)"/>
<path d="M0 0 C4.95726661 5.21148541 5.35289688 8.87706764 5.27734375 15.88671875 C4.74246627 21.89090677 2.28357474 25.45971031 -1.5 30 C-6.56446165 33.79321066 -14.14454568 32.34158111 -20.06542969 31.63330078 C-23.09561263 31.15617253 -26.10949165 30.6247464 -29.125 30.0625 C-41.7091405 27.78253088 -53.83318107 26.76092827 -66.625 26.75 C-67.33621002 26.74932526 -68.04742004 26.74865051 -68.78018188 26.74795532 C-86.44126747 26.7745762 -104.99564496 28.20589227 -119.125 40.1015625 C-125.07429932 46.12522806 -127.13130989 51.90212913 -127.25 60.25 C-127.17551458 67.64060866 -125.99453174 73.79103566 -120.7890625 79.453125 C-105.80676619 92.40725019 -84.4325266 99.58339212 -66.04104614 106.07672119 C-63.15868352 107.09475237 -60.28196593 108.12760384 -57.40600586 109.16357422 C-49.49347113 112.00812878 -41.57078292 114.81882242 -33.61328125 117.53515625 C-3.01738622 128.04221108 34.7893175 143.08185076 50.17578125 173.78515625 C55.0360052 186.84556846 54.46972663 201.23730454 49 214 C40.72843223 231.42308956 23.62350513 241.59778416 6.16992188 248.234375 C-45.08692527 266.3195992 -115.68349567 265.41523469 -165.27636719 242.96972656 C-181.41437334 235.17125332 -181.41437334 235.17125332 -184 230 C-185.00374041 222.41459031 -183.5306626 217.10702452 -179 211 C-174.25559445 205.17206058 -168.42931163 199.90682192 -161 198 C-154.71185844 197.94098097 -149.90608562 199.65455237 -144.4375 202.5625 C-106.51221772 221.39451199 -55.62003003 230.10294768 -14.3515625 218.12890625 C-5.68548434 215.20991256 0.43335023 212.17207477 5.1015625 204.09375 C6.09481581 201.77903795 6.33147691 200.07378254 6.375 197.5625 C6.40335938 196.82128906 6.43171875 196.08007812 6.4609375 195.31640625 C5.56361155 190.80696313 2.69802609 188.49000507 -0.94921875 185.9296875 C-24.67717929 172.34595621 -53.35941511 166.27791661 -79.4921875 159.03442383 C-97.12567071 154.1254381 -114.40631023 148.76920703 -130.875 140.6875 C-132.60085327 139.84566162 -132.60085327 139.84566162 -134.36157227 138.98681641 C-142.93877416 134.71370655 -150.649396 130.16628564 -158 124 C-158.52577637 123.55946289 -159.05155273 123.11892578 -159.59326172 122.66503906 C-173.57623937 110.79992885 -184.28906389 96.97103114 -186.3034668 78.16723633 C-186.43539097 75.31267436 -186.46768182 72.48237287 -186.4375 69.625 C-186.43065186 68.62130371 -186.42380371 67.61760742 -186.41674805 66.58349609 C-186.24803115 58.76438397 -185.23574541 52.19527597 -182 45 C-181.649375 44.21109375 -181.29875 43.4221875 -180.9375 42.609375 C-169.82680118 20.54229263 -146.48949344 8.19169254 -123.9453125 0.59375 C-86.32772684 -11.39948454 -37.2184639 -15.65411787 0 0 Z " fill="#8A8A8A" transform="translate(284,244)"/>
<path d="M0 0 C0.39557854 0.77569588 0.39557854 0.77569588 0.79914856 1.56706238 C3.60553284 7.06957811 6.41354851 12.57125925 9.22241211 18.07250977 C10.26317478 20.11136911 11.30355444 22.15042401 12.34350586 24.18969727 C19.47487704 38.17298096 26.68470428 52.11199974 34 66 C33.67 66.99 33.34 67.98 33 69 C31.88625 69.3403125 30.7725 69.680625 29.625 70.03125 C18.82723308 73.42313131 8.9427443 77.61585175 -1 83 C-1.60295898 83.31694824 -2.20591797 83.63389648 -2.82714844 83.96044922 C-33.8311625 100.27434532 -58.12752138 128.70926266 -68.69140625 162.19140625 C-76.66580175 188.75753525 -77.18861897 215.46743448 -77 243 C-84.32401122 243.29031864 -91.64824702 243.57439641 -98.97265625 243.85449219 C-101.45513156 243.95012011 -103.9375558 244.0470851 -106.41992188 244.14550781 C-121.2904631 244.73408335 -136.11822005 245.11629883 -151 245 C-151.72895225 231.56441094 -152.24431149 218.13847439 -152.57250977 204.6875 C-152.62171274 202.74657682 -152.67112725 200.805659 -152.72073364 198.86474609 C-152.85315022 193.6581983 -152.98246954 188.45157811 -153.1110394 183.24493408 C-153.24699054 177.75569944 -153.38541148 172.26652692 -153.52342224 166.77734375 C-153.75463279 157.56514826 -153.98375462 148.35290256 -154.21166992 139.140625 C-154.47394138 128.54095367 -154.73981253 117.94137715 -155.00755268 107.34184265 C-155.23872264 98.18625907 -155.46791669 89.03062753 -155.69550556 79.87495422 C-155.83083689 74.43076979 -155.96681352 68.98660373 -156.10458565 63.54248047 C-156.23409452 58.42056651 -156.36109514 53.29859596 -156.48628616 48.17657471 C-156.53218895 46.31437064 -156.57890914 44.45218647 -156.62658119 42.59002686 C-156.64876402 41.7216217 -156.67094685 40.85321655 -156.69380188 39.95849609 C-156.71316236 39.21078949 -156.73252285 38.46308289 -156.75247002 37.69271851 C-157.00100267 26.78008647 -157 15.92752661 -157 5 C-132.25 3.68 -107.5 2.36 -82 1 C-81.67 24.76 -81.34 48.52 -81 73 C-78.36 67.72 -75.72 62.44 -73 57 C-68.30210716 49.65420392 -62.99569566 43.31521549 -57 37 C-56.11570312 36.05125 -55.23140625 35.1025 -54.3203125 34.125 C-44.85628836 24.17325727 -14.57883168 -4.85961056 0 0 Z " fill="#93CFC7" transform="translate(1707,288)"/>
<path d="M0 0 C1.89836939 2.97411205 2.18108092 4.1009428 2.46331692 7.48684025 C2.53794183 8.37876139 2.61256674 9.27068253 2.68945301 10.18963158 C2.9796063 14.48667275 3.18129574 18.78167902 3.33692932 23.08555603 C3.37453572 24.05666354 3.41214211 25.02777105 3.4508881 26.02830607 C3.5751047 29.25566347 3.69491155 32.4831687 3.81469727 35.71069336 C3.90325747 38.03600017 3.99208071 40.36129697 4.08114624 42.68658447 C4.32161241 48.9865455 4.55813924 55.28664866 4.79375577 61.58679271 C5.01636041 67.52774832 5.24141449 73.46861085 5.4662708 79.40948159 C5.93903062 91.90410876 6.40791231 104.39887919 6.87550288 116.89370073 C7.27537905 127.57647276 7.67877362 138.25910724 8.0847168 148.94165039 C8.5573892 161.38021134 9.0276761 173.81885901 9.49437374 186.25764567 C9.7409945 192.82930791 9.98859199 199.40092932 10.23880196 205.97245598 C10.47432653 212.16200019 10.70630559 218.35166781 10.93568039 224.54144287 C11.01990748 226.79916017 11.10532025 229.05683363 11.19207954 231.31445503 C11.69907927 244.52982388 11.98866174 257.71214973 11.875 270.9375 C10.61087464 271.75085043 9.34367043 272.55941691 8.07519531 273.3659668 C7.01718719 274.04214302 7.01718719 274.04214302 5.93780518 274.73197937 C-2.27717941 279.5328852 -14.21779282 280.30723431 -23.4296875 278.48046875 C-27.95931393 277.21617543 -27.95931393 277.21617543 -29.48828125 274.64453125 C-31.84491234 269.91880013 -32.46217345 264.78982393 -33.3125 259.625 C-33.57836914 258.13323242 -33.57836914 258.13323242 -33.84960938 256.61132812 C-34.86645813 250.63194334 -35.30720793 245.00062578 -35.125 238.9375 C-36.22328125 239.1540625 -37.3215625 239.370625 -38.453125 239.59375 C-66.84470159 244.65842058 -103.48080812 246.54111388 -128.69921875 230.27734375 C-130.95625256 228.59510633 -133.0446367 226.83276328 -135.125 224.9375 C-136.17107422 224.01130859 -136.17107422 224.01130859 -137.23828125 223.06640625 C-148.24188925 212.76736072 -153.53622652 198.92669154 -154.125 183.9375 C-154.1765625 182.89207031 -154.228125 181.84664062 -154.28125 180.76953125 C-154.7174731 164.39298891 -150.77205549 149.17514584 -139.8125 136.625 C-138.27219685 135.0406141 -136.7095677 133.47761613 -135.125 131.9375 C-134.36445312 131.16792969 -133.60390625 130.39835938 -132.8203125 129.60546875 C-114.29415102 111.77783467 -86.37104693 103.67178081 -61.1875 103.875 C-59.58938477 103.88176758 -59.58938477 103.88176758 -57.95898438 103.88867188 C-55.34759398 103.90038215 -52.73633743 103.91766779 -50.125 103.9375 C-50.25482773 103.08055038 -50.38465546 102.22360077 -50.51841736 101.34068298 C-51.73047996 93.13663292 -52.6740951 84.95335297 -53.37890625 76.69140625 C-53.48468491 75.4783934 -53.59046356 74.26538055 -53.69944763 73.01560974 C-53.9206529 70.46540989 -54.13987336 67.91503716 -54.35717773 65.36450195 C-54.68408679 61.53993175 -55.02033483 57.71626305 -55.35742188 53.89257812 C-56.36934974 42.26119417 -57.30956073 30.62231521 -57.96484375 18.96484375 C-58.0283754 18.03201065 -58.09190704 17.09917755 -58.15736389 16.13807678 C-58.41213624 10.89934896 -58.09125125 7.48135348 -55.125 2.9375 C-42.74932031 -8.82523329 -13.69613767 -9.03945087 0 0 Z M-97.875 143.1875 C-108.49675281 154.58584323 -110.90106982 166.93333149 -110.47265625 182.00390625 C-109.80927379 194.4274667 -105.21404415 203.24051023 -96.375 211.6875 C-86.13494162 220.29622471 -72.90598023 220.95485539 -60.125 219.9375 C-53.05775395 218.95111871 -46.09851227 217.43098697 -39.125 215.9375 C-40.57705766 199.81976749 -42.0638931 183.70531589 -43.58416176 167.5938797 C-43.92370024 163.99492376 -44.26159147 160.39582818 -44.59594727 156.79638672 C-44.92541944 153.24994544 -45.25876031 149.70388801 -45.59490776 146.15807343 C-45.78200784 144.17401165 -45.96514229 142.18957719 -46.14820862 140.20513916 C-46.26180222 139.01499207 -46.37539581 137.82484497 -46.49243164 136.59863281 C-46.59076797 135.55024231 -46.68910431 134.50185181 -46.79042053 133.42169189 C-46.98791185 130.94182194 -46.98791185 130.94182194 -48.125 128.9375 C-65.85369473 126.26010529 -84.55873662 130.77650891 -97.875 143.1875 Z " fill="#8A8A8A" transform="translate(899.125,229.0625)"/>
<path d="M0 0 C0.81484918 2.89986722 1.17069811 5.58036337 1.29711914 8.5871582 C1.33708511 9.49363602 1.37705109 10.40011383 1.41822815 11.33406067 C1.47610756 12.80258736 1.47610756 12.80258736 1.53515625 14.30078125 C1.57813339 15.32817917 1.62111053 16.35557709 1.66539001 17.41410828 C1.75564602 19.60045038 1.84376782 21.78688147 1.92993164 23.97338867 C2.05940402 27.23451904 2.19810722 30.49515686 2.33789062 33.75585938 C2.42504885 35.89581021 2.51165235 38.03578372 2.59765625 40.17578125 C2.65857201 41.58661736 2.65857201 41.58661736 2.72071838 43.0259552 C3.13925739 54.01267574 3.03678899 65.00730118 3 76 C-45.99252651 78.12330238 -94.985284 80.24120977 -143.97833347 82.35241222 C-153.25875525 82.7523483 -162.5391544 83.1528017 -171.8195219 83.55399513 C-183.45987301 84.05720843 -195.10028913 84.55881156 -206.74093151 85.05524635 C-211.66363053 85.26519365 -216.58628204 85.47611643 -221.50881958 85.68981934 C-226.00682516 85.88505155 -230.50494803 86.0772969 -235.00318527 86.26711464 C-236.58596836 86.3343976 -238.16870786 86.40271724 -239.75139236 86.4722805 C-249.5084291 86.9003936 -259.23461748 87.07998575 -269 87 C-269.6573525 83.32783905 -270.145288 79.75739258 -270.29711914 76.03051758 C-270.3570681 74.62163017 -270.3570681 74.62163017 -270.41822815 73.1842804 C-270.45681442 72.18116318 -270.4954007 71.17804596 -270.53515625 70.14453125 C-270.57813339 69.08828049 -270.62111053 68.03202972 -270.66539001 66.94377136 C-270.75543703 64.70550847 -270.84357305 62.467168 -270.92993164 60.22875977 C-271.06030551 56.86905149 -271.19862885 53.50974077 -271.33789062 50.15039062 C-271.84954584 37.426101 -272.12918989 24.73429576 -272 12 C-265.71399333 11.11745157 -259.48969277 10.71754054 -253.14958191 10.46214294 C-252.07905604 10.41636944 -251.00853017 10.37059594 -249.90556413 10.32343537 C-246.33064121 10.17138408 -242.75553978 10.02405139 -239.18041992 9.87670898 C-236.61269967 9.76847087 -234.04499161 9.65994306 -231.47729492 9.55114746 C-225.23570051 9.28721337 -218.99396498 9.02677388 -212.75217583 8.76749068 C-205.48343277 8.46539675 -198.21484452 8.1596549 -190.94626216 7.85372282 C-177.98096765 7.30812592 -165.0155476 6.76557291 -152.05004883 6.22485352 C-139.46598534 5.70003682 -126.88199676 5.17347294 -114.2980957 4.64477539 C-113.52228785 4.61218116 -112.74648001 4.57958693 -111.94716283 4.546005 C-108.82884233 4.41498964 -105.71052205 4.28396898 -102.59220214 4.15293964 C-89.15311579 3.58828212 -75.71397057 3.02502796 -62.2748163 2.46198955 C-60.09795071 2.37077874 -57.92108642 2.27953693 -55.7442224 2.18828845 C-47.48409986 1.84208163 -39.22394849 1.49657914 -30.96375275 1.1521225 C-28.45747047 1.04752111 -25.95119702 0.94270771 -23.44493294 0.83767128 C-20.03514622 0.69481525 -16.62532807 0.55273546 -13.21549988 0.41087341 C-12.21415785 0.3687551 -11.21281583 0.32663679 -10.18113011 0.28324217 C-9.27092431 0.24554151 -8.36071851 0.20784086 -7.42293072 0.16899776 C-6.63555041 0.13612445 -5.8481701 0.10325113 -5.03692979 0.06938165 C-3.35876714 0.01222028 -1.67913587 0 0 0 Z " fill="#93CFC7" transform="translate(1541,174)"/>
<path d="M0 0 C-0.37045691 18.78653305 -0.7441732 37.57299867 -1.12164211 56.35939217 C-1.29688136 65.08461752 -1.47110232 73.80986087 -1.64282227 82.53515625 C-1.79270783 90.15088351 -1.94460969 97.7665676 -2.09881264 105.3822087 C-2.18019609 109.40482526 -2.26065166 113.42745498 -2.33868217 117.45013809 C-2.67287724 134.6452825 -3.08440703 151.82371136 -4 169 C-13.75265898 173.4969504 -23.56952834 177.72329703 -33.625 181.5 C-37.53791927 182.98709521 -41.28335275 184.57552246 -45 186.5 C-49.61382235 188.88442339 -54.33769066 190.71472693 -59.19921875 192.53125 C-64.80479791 194.65913824 -70.30378186 197.05311858 -75.81616211 199.40942383 C-76.60385986 199.74482178 -77.39155762 200.08021973 -78.203125 200.42578125 C-78.91114258 200.72911377 -79.61916016 201.03244629 -80.34863281 201.3449707 C-82 202 -82 202 -83 202 C-83 194.41 -83 186.82 -83 179 C-78.55366175 175.18885293 -74.77865691 172.11651538 -70 169 C-68.32916181 167.67189785 -66.66270287 166.33827304 -65 165 C-63.83642482 164.18307886 -62.66955739 163.3708334 -61.5 162.5625 C-58.32674818 160.31733904 -55.71981045 157.78614729 -53 155 C-51.71615942 153.86607711 -50.42376967 152.74179234 -49.125 151.625 C-47.74773772 150.41924585 -46.37272317 149.2109193 -45 148 C-44.04480469 147.1646875 -44.04480469 147.1646875 -43.0703125 146.3125 C-37.78220823 141.41022308 -34.34055739 136.31558785 -33.76171875 128.98046875 C-33.75142042 126.30633448 -33.82050216 123.66753739 -34 121 C-38.95827821 117.49469709 -42.23491327 117.83523438 -48.078125 118.4765625 C-51.67180855 119.12035073 -54.67206155 120.52091624 -58 122 C-59.55826869 122.16979378 -61.12227852 122.2906616 -62.6875 122.375 C-67.85295498 122.76995983 -71.84554257 124.44628608 -76.54296875 126.55078125 C-80.56965095 128.23880283 -84.65447845 129.55426834 -88.8125 130.875 C-96.10005893 133.21879921 -102.91104891 136.1270088 -109.79296875 139.4609375 C-114.62496467 141.7798247 -119.31962679 143.61675699 -124.5625 144.8125 C-128.73215023 145.79066844 -132.65759277 147.34909003 -136.625 148.9375 C-137.25865479 149.19055908 -137.89230957 149.44361816 -138.54516602 149.7043457 C-141.48169806 150.89928983 -144.32974444 152.16772892 -147.15625 153.60546875 C-149.75336692 154.87905493 -152.08298086 155.67012959 -154.875 156.375 C-158.23418317 157.33050099 -160.82663771 158.38049906 -163.6875 160.375 C-167.7583544 163.11048467 -172.00861538 164.39933371 -176.66894531 165.84545898 C-183.18386348 167.93229348 -189.29732276 170.7520785 -195.49804688 173.62304688 C-200.84324913 176.08028106 -206.21079335 178.27157116 -211.75 180.25 C-216.62701891 181.993619 -220.88153227 183.95913605 -225.14453125 186.9140625 C-228.11656639 188.65348517 -231.338159 189.36744297 -234.64453125 190.2578125 C-237.33378828 191.10517375 -239.50585251 192.47218582 -241.88671875 193.9609375 C-245.89720736 195.93282284 -250.28501196 196.86232905 -254.59765625 197.97265625 C-257.97681757 198.99300002 -260.85289862 200.42423616 -264 202 C-267.375 202.1875 -267.375 202.1875 -270 202 C-271.39202259 196.43190963 -268.7648479 193.96423501 -265.9375 189.11328125 C-263.974257 185.95863473 -261.9021202 183.23861453 -259.390625 180.515625 C-258.04384451 179.04778559 -256.83037238 177.46101629 -255.625 175.875 C-253.36035643 173.39467609 -251.87316463 172.19983215 -249.0625 170.5625 C-245.40740832 168.42694082 -243.11697553 166.0464597 -240.5 162.75390625 C-238.94177606 160.93192044 -237.29999802 159.50525164 -235.4375 158 C-232.38439449 155.49161155 -230.31983848 152.81025326 -228.125 149.546875 C-226.67813167 147.55743104 -225.11733496 146.24119636 -223 145 C-222.34 145 -221.68 145 -221 145 C-220.67 144.01 -220.34 143.02 -220 142 C-217.671875 140.1328125 -217.671875 140.1328125 -214.75 138.125 C-210.77964277 135.3278193 -207.3888872 132.48571255 -204 129 C-202.595629 128.08552586 -201.19010571 127.1726493 -199.7734375 126.27734375 C-197.48424176 124.62851774 -195.49946921 122.7376719 -193.4375 120.8125 C-187.69245309 115.54548271 -181.48299333 111.30279888 -175 107 C-173.92234375 106.25363281 -172.8446875 105.50726563 -171.734375 104.73828125 C-169 103 -169 103 -167 103 C-167 102.34 -167 101.68 -167 101 C-165.37615858 99.85252535 -163.75088944 98.7070709 -162.125 97.5625 C-161.22007813 96.92441406 -160.31515625 96.28632813 -159.3828125 95.62890625 C-149.62624216 88.95925078 -130.97186621 92.66179515 -119.79199219 94.58984375 C-105.59827087 97.28538726 -93.38582718 102.14370061 -80 108 C-80 86.55 -80 65.1 -80 43 C-76.7 41.02 -73.4 39.04 -70 37 C-68.63875 36.05125 -67.2775 35.1025 -65.875 34.125 C-61.16271714 30.92499232 -56.13203146 28.52292855 -51.02075195 26.04052734 C-45.91355361 23.53280121 -41.19164376 20.65567911 -36.44140625 17.51953125 C-33.4998015 15.68867645 -30.49137774 14.35130776 -27.30078125 13.01953125 C-23.72005884 11.43282743 -20.34608934 9.48964269 -16.921875 7.59375 C-3 0 -3 0 0 0 Z " fill="#BEE0DB" transform="translate(2136,194)"/>
<path d="M0 0 C18.78028934 -0.14044569 37.48574681 0.21848393 56.25 1 C58.67576105 1.09686142 61.10154234 1.1932171 63.52734375 1.2890625 C69.35180708 1.5202573 75.1759961 1.75751997 81 2 C81.79932872 4.79013979 82.10110183 7.17209004 81.99810886 10.06856918 C81.95929469 11.27706185 81.95929469 11.27706185 81.91969639 12.50996852 C81.88565596 13.38934431 81.85161554 14.26872011 81.81654358 15.17474365 C81.78472959 16.11329484 81.75291559 17.05184603 81.72013754 18.01883817 C81.61188871 21.17130154 81.49549192 24.32341161 81.37915039 27.47558594 C81.29999224 29.73228779 81.22133507 31.98900727 81.1431427 34.2457428 C80.92918029 40.37979631 80.70818773 46.51357898 80.4859612 52.64733791 C80.25500862 59.05472685 80.03048201 65.46234082 79.80528259 71.86993408 C79.42634289 82.62712712 79.04342675 93.38417019 78.6574707 104.14111328 C78.25994659 115.22077223 77.86481393 126.3005122 77.47290039 137.38037109 C77.43666236 138.40482773 77.43666236 138.40482773 77.39969224 139.44998047 C77.27850988 142.87624886 77.15737456 146.30251892 77.03626263 149.72878981 C76.03146935 178.15278775 75.01834277 206.57648449 74 235 C65.08027094 234.76045804 56.16065128 234.51724801 47.24114609 234.26950932 C43.09830966 234.15455433 38.9554478 234.0408062 34.8125 233.92993164 C30.80533749 233.82264463 26.7982785 233.71203671 22.7912674 233.59924126 C21.27170217 233.55702804 19.75210464 233.51595952 18.23247528 233.4761219 C9.46056709 233.24531863 0.7381869 232.85411977 -8 232 C-7.42010084 214.14572079 -6.8365115 196.29156317 -6.25 178.4375 C-6.22794306 177.76593447 -6.20588612 177.09436894 -6.18316078 176.40245295 C-4.77638478 133.57815882 -3.30390841 90.75672848 -1.75 47.9375 C-1.68338921 46.10189074 -1.68338921 46.10189074 -1.61543274 44.22919846 C-1.08014513 29.48601527 -0.54179284 14.74294553 0 0 Z " fill="#93CFC7" transform="translate(1755,297)"/>
<path d="M0 0 C1.57403528 6.14947198 2.33141401 11.96824906 2.4921875 18.3046875 C2.55559117 20.15601395 2.61924292 22.00733191 2.68310547 23.85864258 C2.71386169 24.83507721 2.74461792 25.81151184 2.77630615 26.8175354 C3.42264321 46.84059371 4.51167625 66.82627104 5.875 86.8125 C5.9595343 88.05283997 6.0440686 89.29317993 6.13116455 90.57110596 C7.40843927 109.10594252 8.93683912 127.60976189 10.78076172 146.09692383 C10.86282867 146.92680313 10.94489563 147.75668243 11.02944946 148.61170959 C11.18029576 150.12714082 11.33425911 151.64226716 11.49227905 153.15696716 C12.68953122 165.11345985 12.68953122 165.11345985 10.25 168.25 C3.30315531 175.25655969 -9.26705472 176.14060068 -18.5625 176.1875 C-20.48255859 176.20876953 -20.48255859 176.20876953 -22.44140625 176.23046875 C-25.78821876 176.0137158 -28.00962481 175.45213997 -31 174 C-34.0696287 163.30201743 -36.8897366 152.57871568 -39.38745117 141.73168945 C-39.58443604 140.88179443 -39.7814209 140.03189941 -39.984375 139.15625 C-40.15678711 138.40150391 -40.32919922 137.64675781 -40.50683594 136.86914062 C-40.95099052 134.92782402 -40.95099052 134.92782402 -42 133 C-42.64324219 133.6290625 -43.28648437 134.258125 -43.94921875 134.90625 C-59.88825874 150.00399972 -79.26962826 159.71681561 -101.55078125 159.2421875 C-114.85284764 158.30818057 -128.73813688 154.8872162 -138.375 145.0625 C-165.09714554 111.24496677 -163.65069704 55.17892711 -164.375 14.25 C-164.40102295 13.4650415 -164.4270459 12.68008301 -164.45385742 11.87133789 C-164.46530636 8.36519805 -164.09964044 6.17472495 -162.3515625 3.109375 C-157.33151549 -1.3936572 -151.60739638 -1.38638873 -145.1875 -1.375 C-144.39158447 -1.37556396 -143.59566895 -1.37612793 -142.77563477 -1.37670898 C-136.70894878 -1.26306342 -130.51197936 -0.51197936 -126 4 C-124.86237308 17.02381469 -123.88399921 30.04261882 -123.25390625 43.1015625 C-123.19608978 44.29062195 -123.13827332 45.4796814 -123.07870483 46.70477295 C-122.84528249 51.56461395 -122.61638641 56.42460617 -122.39819336 61.28515625 C-122.52724574 95.88383902 -122.52724574 95.88383902 -110 127 C-105.09929179 131.30668297 -100.37184787 131.34940408 -94.07421875 131.2734375 C-88.2227397 130.75297558 -84.05666536 128.36916536 -79.9375 124.25 C-72.95580023 115.21932312 -69.68368239 103.96998629 -67.25 93 C-67.0636499 92.16726563 -66.8772998 91.33453125 -66.68530273 90.4765625 C-63.51187592 74.95507736 -62.02864557 59.06189631 -61.0078125 43.2734375 C-60.93316772 42.131026 -60.85852295 40.9886145 -60.78161621 39.81158447 C-60.4808285 35.13455789 -60.18628369 30.45753148 -59.92138672 25.77832031 C-59.72064203 22.29589821 -59.4914929 18.81628323 -59.2578125 15.3359375 C-59.20553497 14.28288422 -59.15325745 13.22983093 -59.09939575 12.14486694 C-58.64442551 5.75663453 -57.79739464 2.36863981 -53 -2 C-38.03199955 -8.91559514 -13.46773343 -11.15897913 0 0 Z " fill="#8A8A8A" transform="translate(707,336)"/>
<path d="M0 0 C14.26301718 13.81446988 7.61675074 62.31563251 8 82 C8.96502441 81.87447754 9.93004883 81.74895508 10.92431641 81.61962891 C20.72641414 80.36004285 30.5337573 79.27781748 40.375 78.375 C41.08735809 78.30896576 41.79971619 78.24293152 42.53366089 78.17489624 C73.07495826 75.37788298 73.07495826 75.37788298 78.4375 79.8125 C79.07558594 80.33457031 79.71367188 80.85664063 80.37109375 81.39453125 C83.28735557 84.26883247 83.21115611 87.48126093 83.3125 91.375 C83.34988281 92.31085938 83.38726563 93.24671875 83.42578125 94.2109375 C82.88561366 97.74928302 81.39199919 99.40512908 79 102 C64.79068711 104.35041266 50.51834755 105.81821497 36.1875 107.1875 C35.25431946 107.27785522 34.32113892 107.36821045 33.35968018 107.46130371 C30.65036317 107.72238972 27.94055937 107.97755135 25.23046875 108.23046875 C24.01412498 108.34744362 24.01412498 108.34744362 22.77320862 108.46678162 C17.82603053 108.91791353 12.96789624 109.0698007 8 109 C8.23546791 110.21748428 8.23546791 110.21748428 8.47569275 111.45956421 C9.07967667 115.53802449 9.26172505 119.53074604 9.38891602 123.64697266 C9.41832275 124.49710434 9.44772949 125.34723602 9.47802734 126.22312927 C9.57414269 129.03665154 9.66428246 131.85032646 9.75390625 134.6640625 C9.81955676 136.65433337 9.88539175 138.64459816 9.95140076 140.63485718 C10.0893971 144.82614911 10.22429008 149.01752747 10.35717773 153.20898438 C10.49137332 157.43277831 10.629951 161.65638606 10.77319336 165.87988281 C11.65646082 191.92894227 12.23436395 217.93527996 12 244 C6.45974582 249.81584144 0.70845328 252.65848318 -7.28515625 253.23828125 C-15.29316194 253.39562573 -22.92454225 253.25014588 -30 249 C-33.30893224 245.46505414 -34.51822715 243.1298186 -34.87109375 238.31640625 C-34.96793457 237.1135498 -35.06477539 235.91069336 -35.16455078 234.67138672 C-35.25594092 233.30178491 -35.34690523 231.93215465 -35.4375 230.5625 C-35.54791226 229.08859857 -35.65979593 227.61480682 -35.77294922 226.14111328 C-36.03926009 222.61483616 -36.29188117 219.08782936 -36.53759766 215.56005859 C-36.92981576 209.94762263 -37.343025 204.33685329 -37.76072788 198.72627163 C-38.33204567 191.05151055 -38.89540178 183.37617884 -39.45524979 175.70057297 C-39.5676159 174.16116044 -39.68020974 172.62176451 -39.79304123 171.08238602 C-41.18669547 152.06353124 -42.41034535 133.06483527 -43 114 C-44.8409021 114.21499146 -44.8409021 114.21499146 -46.71899414 114.43432617 C-61.83310758 116.19091767 -76.78387557 117.17995417 -92 117 C-96.10796027 113.03398144 -97.77807364 110.39680474 -98.3125 104.625 C-97.9489715 100.40806942 -96.84916306 97.77537457 -95 94 C-92.28777533 92.51497875 -90.03401784 91.69227082 -86.96923828 91.31396484 C-86.18807648 91.21401215 -85.40691467 91.11405945 -84.6020813 91.01107788 C-83.7665976 90.91203156 -82.93111389 90.81298523 -82.0703125 90.7109375 C-81.20236053 90.60278717 -80.33440857 90.49463684 -79.44015503 90.38320923 C-77.60652938 90.15626853 -75.77245717 89.93291109 -73.93798828 89.71289062 C-71.14114475 89.37693928 -68.34595046 89.02926829 -65.55078125 88.6796875 C-63.76571037 88.46024195 -61.98055655 88.2414698 -60.1953125 88.0234375 C-58.94815964 87.86879532 -58.94815964 87.86879532 -57.67581177 87.71102905 C-53.42142678 87.2050819 -49.29429837 86.88674188 -45 87 C-45.1539624 85.9783374 -45.3079248 84.9566748 -45.46655273 83.90405273 C-46.26590456 77.47466727 -46.34806885 71.00509442 -46.53515625 64.53515625 C-46.57827925 63.13324611 -46.6216958 61.73134497 -46.66539001 60.32945251 C-46.75586558 57.40207234 -46.84388766 54.47463287 -46.92993164 51.54711914 C-47.03959565 47.81742495 -47.15372905 44.08788534 -47.26950932 40.3583765 C-47.35907693 37.46629924 -47.44709393 34.57417653 -47.53457451 31.68203545 C-47.57616208 30.30787766 -47.61802205 28.93372809 -47.66017342 27.55958748 C-47.78771089 23.37334255 -47.90075774 19.18700842 -48 15 C-48.02480438 14.07468475 -48.04960876 13.14936951 -48.07516479 12.1960144 C-48.17115373 6.34230746 -48.17115373 6.34230746 -46.5625 3.125 C-43.0335084 0.19851916 -39.40509447 -0.9005835 -35 -2 C-33.88625 -2.2784375 -33.88625 -2.2784375 -32.75 -2.5625 C-22.53361216 -4.18783443 -9.48183225 -4.37508165 0 0 Z " fill="#8A8A8A" transform="translate(436,254)"/>
<path d="M0 0 C16.00334949 12.08557655 31.90517361 28.79896785 35.00952148 49.484375 C36.07764059 65.31355 33.11093706 79.69669647 22.59692383 92.15869141 C15.92667113 99.58812557 8.82057952 105.70014721 0.00952148 110.484375 C-0.91086914 111.00386719 -1.83125977 111.52335938 -2.77954102 112.05859375 C-18.72413605 120.58959676 -35.65264703 123.88327688 -53.61547852 123.859375 C-54.27489441 123.85916351 -54.9343103 123.85895203 -55.6137085 123.85873413 C-71.05132273 123.80939998 -84.02412707 121.21992038 -97.99047852 114.484375 C-98.88895508 114.06671875 -99.78743164 113.6490625 -100.71313477 113.21875 C-118.60437039 104.2602608 -131.69419949 88.72973894 -138.24438477 69.875 C-143.98075423 50.94594567 -142.16379477 31.21438472 -132.94360352 13.78125 C-122.87039967 -3.22231809 -106.90860892 -14.19296672 -87.99047852 -19.515625 C-57.59288061 -27.11254937 -24.89255255 -18.14383952 0 0 Z M-81.99047852 15.484375 C-89.58937851 26.11111433 -92.26660772 36.45367793 -90.99047852 49.484375 C-87.99658054 63.63295738 -81.92527699 76.05910423 -69.74047852 84.234375 C-64.4105283 87.4544001 -58.94264343 89.69004328 -52.99047852 91.484375 C-52.36915039 91.67644531 -51.74782227 91.86851562 -51.10766602 92.06640625 C-39.09597014 94.43771891 -26.44488833 92.18010111 -16.11547852 85.671875 C-7.53189159 79.36781208 -0.8399075 71.96985156 1.00952148 61.109375 C1.74641621 48.02949357 -5.16351028 37.77123866 -13.30297852 28.234375 C-25.23205129 15.49928379 -41.59748234 7.63697356 -59.05297852 7.046875 C-67.32087732 7.23893902 -76.19164443 9.188498 -81.99047852 15.484375 Z " fill="#8A8A8A" transform="translate(1177.990478515625,359.515625)"/>
<path d="M0 0 C-0.62594384 3.38250419 -1.45355501 6.5996272 -2.5 9.875 C-6.11074195 21.86970862 -5.72692323 33.8505831 -3 46 C-4.10408203 46.77923828 -4.10408203 46.77923828 -5.23046875 47.57421875 C-10.20280455 51.12776389 -14.72941166 54.61702775 -19 59 C-20.4444537 60.16328141 -21.90442181 61.30742481 -23.375 62.4375 C-24.14972656 63.03433594 -24.92445312 63.63117188 -25.72265625 64.24609375 C-27.14678999 65.34289658 -28.57122045 66.43931436 -29.99609375 67.53515625 C-34.96741462 71.54428599 -39.17421502 76.39372019 -40 83 C-40.22790662 87.25425693 -40.33594576 90.35008475 -38 94 C-25.20207681 96.41470249 -15.8125454 91.76095452 -4.76660156 85.91601562 C-2.63163692 84.80899692 -0.45971591 83.82316901 1.75 82.875 C7.28251454 80.49011024 12.62971619 77.72603239 18 75 C19.32064453 75.52400391 19.32064453 75.52400391 20.66796875 76.05859375 C21.82941406 76.51363281 22.99085937 76.96867187 24.1875 77.4375 C25.33605469 77.88996094 26.48460937 78.34242188 27.66796875 78.80859375 C33.55004898 80.91179946 39.12267899 81.26448968 45.3125 81.5625 C46.14845703 81.60568359 46.98441406 81.64886719 47.84570312 81.69335938 C49.89696935 81.79885307 51.9484648 81.89987315 54 82 C48.8714163 88.44360516 43.05198867 93.10572238 36.375 97.875 C32.7030221 101.16045391 29.92160384 105.04830491 27 109 C25.98486328 110.36125 25.98486328 110.36125 24.94921875 111.75 C22.93609993 114.47965264 20.96395706 117.23484706 19 120 C18.46632813 120.71285156 17.93265625 121.42570312 17.3828125 122.16015625 C14.36761223 126.44446624 13.33384098 129.7435602 13.625 135.01171875 C14.11476932 137.6085165 15.10037243 139.17952358 17 141 C27.15591303 143.74749338 35.16478976 143.71796588 45 140 C46.2375 139.649375 47.475 139.29875 48.75 138.9375 C51.86931431 138.10758978 51.86931431 138.10758978 54.234375 137.0546875 C57.59054749 135.77479121 61.00875506 134.99281663 64.5 134.1875 C72.94732891 132.16029715 81.71234005 129.85843997 89 125 C91.25537153 124.28276384 93.52916598 123.6225064 95.8125 123 C99.33381863 122.03380753 102.81381818 121.06361768 106.26953125 119.8828125 C109.02078523 118.99327974 111.13102352 118.83123668 114 119 C99.09330489 138.10692412 72.8907315 145.51365856 49.78125 148.40234375 C17.14928871 151.53672951 -17.07252277 144.24487052 -42.99853516 123.39257812 C-64.86568263 104.82562591 -79.61773838 79.80928264 -83 51 C-83.5637592 44.01165609 -83.81673909 37.00745175 -84 30 C-82.13021484 29.70609375 -82.13021484 29.70609375 -80.22265625 29.40625 C-68.67756549 27.43435808 -59.12929377 24.1686533 -48.73730469 18.84521484 C-45.87822503 17.45424607 -42.91590311 16.54333528 -39.87890625 15.6328125 C-37.90828684 14.96911116 -36.20392188 14.11129758 -34.375 13.125 C-30.54737064 11.10721551 -26.54743186 9.80868225 -22.4375 8.5 C-17.19506715 6.82767353 -12.68068889 4.88808464 -8 2 C-2.7 0 -2.7 0 0 0 Z " fill="#BEE0DB" transform="translate(1943,387)"/>
<path d="M0 0 C1.22332031 0.3403125 2.44664063 0.680625 3.70703125 1.03125 C10.52709427 3.11028054 16.81941513 5.69888654 23.125 9 C23.74052734 9.3199292 24.35605469 9.6398584 24.99023438 9.96948242 C29.74214675 12.57187642 33.5861345 15.6221353 36.375 20.3125 C37.63251385 25.71980955 36.7520382 29.68999798 34.0625 34.375 C32 37 32 37 30 39 C24.19373665 39.47604147 21.73331243 38.61141887 17.3125 34.875 C0.90808151 21.71475819 -21.22388266 16.19760534 -42.08203125 18.3125 C-52.5995546 19.68381853 -66.62102753 23.10992444 -73.515625 31.94140625 C-74.75853869 34.02848114 -74.75853869 34.02848114 -76 37 C-67.75604746 54.51839914 -36.73445741 60.90974734 -20 67 C-17.9111061 67.74745155 -15.82132349 68.49242622 -13.73046875 69.234375 C18.17297438 80.55833551 18.17297438 80.55833551 24.5 90.3125 C25.79677594 97.28267066 24.04381777 102.73289859 20.546875 108.76171875 C8.00082895 126.9154672 -14.1350242 134.91481336 -35 139 C-55.99058033 142.60499546 -78.57557606 141.94607515 -97 130 C-105.84153065 123.14041363 -113.05802679 113.04380162 -115.71484375 102.0390625 C-116 99.5625 -116 99.5625 -116 96 C-113.525 95.505 -113.525 95.505 -111 95 C-110.18660156 95.556875 -109.37320312 96.11375 -108.53515625 96.6875 C-83.78958746 113.30798649 -57.65982754 120.47611586 -28 115 C-18.73045572 112.78336985 -10.63429543 108.96497682 -4 102 C-4 100.35 -4 98.7 -4 97 C-7.75819568 93.66529448 -11.48377764 91.78002741 -16.171875 90.12890625 C-16.86665955 89.87645645 -17.56144409 89.62400665 -18.27728271 89.36390686 C-27.31727325 86.11128873 -36.45853624 83.14918448 -45.59277344 80.17456055 C-89.81571109 65.74620343 -89.81571109 65.74620343 -99 49 C-101.66210258 41.73972024 -99.56698077 35.7495791 -96.52734375 28.98828125 C-88.91111776 14.08696954 -73.74369282 5.885506 -58.31640625 0.78125 C-39.83506504 -4.69470295 -18.62548026 -5.36483055 0 0 Z " fill="#FFA8A8" transform="translate(2022,73)"/>
<path d="M0 0 C3.62983543 5.64641066 2.4839688 15.31703881 2.68359375 21.75 C2.70465117 22.41848969 2.72570858 23.08697937 2.7474041 23.77572632 C3.43836259 46.53613268 3.23612625 69.31695136 3.19366455 92.08483887 C3.18326575 98.26749319 3.17883219 104.45015187 3.17382812 110.6328125 C3.14207699 146.73261897 3.14207699 146.73261897 0.73901367 149.1784668 C-5.64230337 155.45608073 -13.77136 155.15188828 -22.25805664 155.11450195 C-27.95943447 154.96800614 -32.62265015 154.08437771 -37.875 151.75 C-40.82102951 146.67688078 -41.70139242 142.10998284 -42.43359375 136.39453125 C-42.55705673 135.47855667 -42.68051971 134.56258209 -42.807724 133.61885071 C-44.23802303 122.59291435 -45.10982126 111.52204777 -45.9375 100.4375 C-46.06348572 98.7851535 -46.06348572 98.7851535 -46.1920166 97.09942627 C-48.63644285 64.9664897 -50.30220482 32.98096035 -49.875 0.75 C-37.19757886 -9.76783951 -13.58567425 -9.05711616 0 0 Z " fill="#8A8A8A" transform="translate(1000.875,335.25)"/>
<path d="M0 0 C2.51953125 1.77734375 2.51953125 1.77734375 4.8125 3.9375 C5.58207031 4.64777344 6.35164063 5.35804688 7.14453125 6.08984375 C11.20080325 10.26566903 10.37977972 15.42015888 10.30078125 20.93359375 C10.03681657 26.6392919 8.18448534 31.76308649 6 37 C5.34 37 4.68 37 4 37 C3.62875 38.546875 3.62875 38.546875 3.25 40.125 C2.15920937 44.00600143 0.37066116 46.76009641 -2 50 C-2.66 50 -3.32 50 -4 50 C-4.27328125 50.57234375 -4.5465625 51.1446875 -4.828125 51.734375 C-9.4578594 60.68519485 -15.97795319 68.9814087 -22.80078125 76.359375 C-24.15781037 78.21589693 -24.58520878 79.75524749 -25 82 C-26.39176632 82.96423026 -27.7886223 83.92111602 -29.1875 84.875 C-29.96480469 85.40867187 -30.74210937 85.94234375 -31.54296875 86.4921875 C-33.9676609 87.98015439 -36.3333499 89.02428078 -39 90 C-43.61513112 88.68139111 -47.09897612 86.78644563 -51 84 C-51 83.34 -51 82.68 -51 82 C-51.515625 81.896875 -52.03125 81.79375 -52.5625 81.6875 C-55.86026435 80.75736134 -58.86633332 79.38604488 -62 78 C-62.226875 77.401875 -62.45375 76.80375 -62.6875 76.1875 C-64.35119494 73.41467511 -66.20665459 72.56699864 -69 71 C-70.5 69.625 -70.5 69.625 -72 68 C-72.763125 67.29875 -73.52625 66.5975 -74.3125 65.875 C-77.16674518 62.82162144 -79.26723946 59.64257765 -81.515625 56.13671875 C-83.05551356 53.77675229 -83.05551356 53.77675229 -85.75 51.3125 C-88.36586076 48.62397645 -88.91312584 46.5504556 -90 43 C-90.721875 42.154375 -91.44375 41.30875 -92.1875 40.4375 C-95.43015157 34.28764357 -93.8648418 27.82923664 -92.37890625 21.25 C-89.6947711 13.03063878 -83.45253691 7.52823572 -76.0625 3.33203125 C-66.60671597 -0.78075237 -57.55804326 -0.52654012 -48 3 C-43.27246603 4.98170163 -40.14890584 7.19656341 -38 12 C-38 12.66 -38 13.32 -38 14 C-32.88982404 11.86085658 -30.49351905 9.21013834 -27 5 C-22.89437477 3.0066892 -18.46808566 1.94559863 -14.0625 0.8125 C-13.02706055 0.52729492 -13.02706055 0.52729492 -11.97070312 0.23632812 C-7.63460971 -0.87749303 -4.3039045 -1.32242876 0 0 Z M-17 11 C-17.86625 11.928125 -17.86625 11.928125 -18.75 12.875 C-20.80249821 14.81347053 -22.43366582 15.90014249 -25 17 C-25 17.33 -25 17.66 -25 18 C-23.35 18.33 -21.7 18.66 -20 19 C-19.34 20.65 -18.68 22.3 -18 24 C-18.99 24.33 -19.98 24.66 -21 25 C-20.34 25.33 -19.68 25.66 -19 26 C-16.36 25.01 -13.72 24.02 -11 23 C-8.8480563 26.22791555 -8.79913557 27.28400809 -9 31 C-9.59329102 31.11786865 -10.18658203 31.2357373 -10.79785156 31.35717773 C-14.32395682 32.3864721 -16.92192209 34.80314545 -19.75 37.0625 C-20.35199219 37.53494141 -20.95398437 38.00738281 -21.57421875 38.49414062 C-23.05409943 39.65690401 -24.52768096 40.8276766 -26 42 C-22.10240213 43.45932176 -22.10240213 43.45932176 -19.3125 41.5 C-16.04183089 40.01894229 -14.47235533 39.90615256 -11 40 C-6.7735669 37.18237793 -6.19070951 33.7959133 -5 29 C-4.74341682 26.12267563 -4.74341682 26.12267563 -5 24 C-4.34 24 -3.68 24 -3 24 C-3.14168137 22.56208484 -3.28851043 21.1246763 -3.4375 19.6875 C-3.51871094 18.88699219 -3.59992188 18.08648437 -3.68359375 17.26171875 C-3.95265693 14.83912821 -3.95265693 14.83912821 -5 12 C-9.0527516 11.01751476 -12.83861737 10.91840426 -17 11 Z M-67.30859375 18.62109375 C-70.23897553 21.0100655 -73.58476109 22.4101474 -77 24 C-77 24.33 -77 24.66 -77 25 C-68.38491243 24.17951547 -60.28559744 22.4680503 -52 20 C-54.04004397 16.93993405 -54.69269325 16.22842822 -58 15 C-62.39959501 14.18954829 -64.11422353 15.69361608 -67.30859375 18.62109375 Z M-61 28 C-62.66286404 28.35181256 -64.33008621 28.68333487 -66 29 C-67.94150923 29.50568324 -69.87907653 30.02673205 -71.8125 30.5625 C-73.27623047 30.96662109 -73.27623047 30.96662109 -74.76953125 31.37890625 C-75.50558594 31.58386719 -76.24164062 31.78882813 -77 32 C-76.3503125 33.5159375 -76.3503125 33.5159375 -75.6875 35.0625 C-74.125 38.70833333 -72.5625 42.35416667 -71 46 C-70.01 46.33 -69.02 46.66 -68 47 C-68 47.66 -68 48.32 -68 49 C-65.32752366 51.34287418 -65.32752366 51.34287418 -62 52 C-61.75507812 52.57234375 -61.51015625 53.1446875 -61.2578125 53.734375 C-59.78889901 56.38024402 -58.04651756 58.14853139 -55.875 60.25 C-54.78832031 61.30960938 -54.78832031 61.30960938 -53.6796875 62.390625 C-52.14702226 64.23061081 -52.14702226 64.23061081 -50 64 C-50 64.66 -50 65.32 -50 66 C-45.54831603 70.30284347 -42.10419901 72.7542451 -36 74 C-35.34 73.34 -34.68 72.68 -34 72 C-34.33 71.01 -34.66 70.02 -35 69 C-36.65 69 -38.3 69 -40 69 C-40.66 67.68 -41.32 66.36 -42 65 C-40.68 63.68 -39.36 62.36 -38 61 C-38 60.34 -38 59.68 -38 59 C-37.38125 58.731875 -36.7625 58.46375 -36.125 58.1875 C-33.7004767 57.04443152 -33.7004767 57.04443152 -32 54 C-33.43931117 54.45261358 -34.87638999 54.91232979 -36.3125 55.375 C-37.51326172 55.75785156 -37.51326172 55.75785156 -38.73828125 56.1484375 C-41.22724528 56.98831811 -41.22724528 56.98831811 -44 59 C-45.65 58.67 -47.3 58.34 -49 58 C-48.59102482 53.1009995 -46.60793633 51.3004017 -42.9375 48.1875 C-42.01839844 47.39730469 -41.09929687 46.60710937 -40.15234375 45.79296875 C-39.44207031 45.20128906 -38.73179688 44.60960937 -38 44 C-41.78713193 44 -43.83354401 45.26892594 -47.1875 47 C-48.27417969 47.556875 -49.36085938 48.11375 -50.48046875 48.6875 C-51.31191406 49.120625 -52.14335938 49.55375 -53 50 C-54.32 49.67 -55.64 49.34 -57 49 C-57 45.89448334 -56.4606285 44.64738916 -55 42 C-56.546875 42.4640625 -56.546875 42.4640625 -58.125 42.9375 C-61.38972557 43.87502812 -64.63613462 44.50772702 -68 45 C-68 44.34 -68 43.68 -68 43 C-68.66 43 -69.32 43 -70 43 C-69.505 42.21625 -69.01 41.4325 -68.5 40.625 C-66.83462035 38.21447673 -66.83462035 38.21447673 -67 36 C-66.443125 35.731875 -65.88625 35.46375 -65.3125 35.1875 C-59.9680345 32.44304475 -55.26107278 29.26107278 -51 25 C-54.87624922 25 -57.4560707 26.47244427 -61 28 Z M-21 53 C-22.32 53.99 -23.64 54.98 -25 56 C-24.67 56.66 -24.34 57.32 -24 58 C-22.68 57.01 -21.36 56.02 -20 55 C-20.33 54.34 -20.66 53.68 -21 53 Z " fill="#FFA8A8" transform="translate(1838,189)"/>
<path d="M0 0 C0.11571601 22.0056239 0.02648851 43.99838429 -0.4375 66 C-0.4669722 67.46833786 -0.4669722 67.46833786 -0.49703979 68.96633911 C-0.74312564 81.00202478 -1.21624198 92.98676782 -2 105 C-6.95 109.62 -11.9 114.24 -17 119 C-17.33 118.34 -17.66 117.68 -18 117 C-17.59007813 116.29875 -17.18015625 115.5975 -16.7578125 114.875 C-11.741276 106.04205534 -8.2286557 98.0853772 -10.8125 87.75 C-12.27858035 84.35486656 -13.67766599 82.64579103 -17.015625 81.015625 C-22.19062313 79.24237389 -25.53436163 79.00624757 -31 80 C-32.794375 79.62875 -32.794375 79.62875 -34.625 79.25 C-39.83091567 78.42589752 -43.94731188 80.82799023 -48.6640625 82.80859375 C-51.86433565 83.95154845 -54.25639879 84.32898764 -57.625 84.4375 C-65.72917095 84.80245604 -73.1369814 87.68100497 -80.76123047 90.25097656 C-87.54701192 92.52129036 -94.39896132 94.59388969 -101.3125 96.4375 C-105.98989423 97.69442092 -110.62286351 99.07107048 -115.25 100.5 C-116.24253784 100.80248657 -116.24253784 100.80248657 -117.25512695 101.11108398 C-120.53433668 102.1340133 -123.66806923 103.26234559 -126.80078125 104.67578125 C-130.19617114 106.08119905 -131.57543776 106.14152075 -135 105 C-130.79546536 98.65197711 -126.09113833 94.48215839 -120 90 C-117.63326606 88.18262371 -115.28436014 86.34293884 -112.9375 84.5 C-112.32874023 84.02361084 -111.71998047 83.54722168 -111.09277344 83.05639648 C-107.89342565 80.53970932 -104.77609018 77.97532259 -101.75 75.25 C-97.45667913 71.41244568 -92.74433744 68.24945005 -88 65 C-82.42107253 61.1625174 -77.27606465 57.4424344 -72.6875 52.4375 C-68.25770878 47.79259302 -63.32282468 45.407821 -57.52734375 42.8984375 C-53.84825218 41.12949428 -51.1260019 38.57885645 -48.12670898 35.84619141 C-44.51708706 32.71268653 -40.54018114 30.13894584 -36.5625 27.5 C-27.17208985 21.23972657 -18.42820261 14.62944092 -10.265625 6.83203125 C-2.98844724 0 -2.98844724 0 0 0 Z " fill="#BEE0DB" transform="translate(2131,395)"/>
<path d="M0 0 C26.07 0.99 52.14 1.98 79 3 C75.61561519 5.53828861 72.93161656 7.06027993 69.125 8.75 C64.23130991 10.96788435 59.37617531 13.23820316 54.5625 15.625 C53.45003906 16.17414063 52.33757813 16.72328125 51.19140625 17.2890625 C47.95348547 18.95560763 47.95348547 18.95560763 44.9140625 21.08203125 C42.20863604 22.86268057 39.83820121 23.95858833 36.8125 25.0625 C30.11720253 27.74397083 24.04035599 31.30649184 17.85083008 34.99047852 C12.99111686 37.87988668 8.08789688 40.53610588 3 43 C1.66590787 43.6651469 0.33237659 44.33142327 -1 45 C-1.15132339 29.9517292 -0.60251356 15.06283898 0 0 Z " fill="#BEE0DB" transform="translate(2057,174)"/>
<path d="M0 0 C2.89701161 3.62126451 2.96076594 6.26734063 2.5 10.875 C-1.05574657 16.91976917 -5.85875432 19.04913046 -12.5 20.875 C-20.7668048 22.4883223 -28.79236708 22.17873526 -36.4375 18.4375 C-41.18816619 14.83851046 -41.18816619 14.83851046 -42.15234375 11.859375 C-42.76649112 7.0471518 -42.75476993 3.49305655 -39.99609375 -0.62109375 C-29.89254204 -10.77740553 -10.21960689 -8.68666586 0 0 Z " fill="#8A8A8A" transform="translate(994.5,290.125)"/>
<path d="M0 0 C-0.59013146 3.46414834 -1.80426946 5.20367863 -4.1875 7.75 C-7.73541825 11.64977791 -10.9042292 15.73622776 -14 20 C-14.66 20 -15.32 20 -16 20 C-16.226875 20.66 -16.45375 21.32 -16.6875 22 C-18.41595024 25.95074342 -20.66492287 29.37448551 -23 33 C-28.61 33 -34.22 33 -40 33 C-39.67 24.42 -39.34 15.84 -39 7 C-21.61990521 -0.24170616 -21.61990521 -0.24170616 -16 -0.0625 C-10.44281648 0.10052962 -5.40980672 -1.39109316 0 0 Z " fill="#BEE0DB" transform="translate(2097,499)"/>
<path d="M0 0 C0.66 0.33 1.32 0.66 2 1 C1.443125 1.42410156 0.88625 1.84820312 0.3125 2.28515625 C-4.23508964 5.78034761 -8.62437745 9.37680154 -12.90625 13.19140625 C-15.19267019 15.16642966 -17.55450681 17.01788339 -19.9375 18.875 C-23.29760407 21.52637195 -26.30506944 24.27162235 -29.25 27.375 C-33.41512304 31.67328861 -37.98034513 34.94171339 -42.88623047 38.31738281 C-47.78825277 41.73227475 -51.99847876 45.55110371 -56 50 C-56.66 49.67 -57.32 49.34 -58 49 C-42.42306318 27.30767317 -24.28923294 11.30253983 0 0 Z " fill="#BEE0DB" transform="translate(1937,297)"/>
<path d="M0 0 C-1.47306247 10.01682478 -7.35776949 14.06603278 -15 20 C-21.6 17.69 -28.2 15.38 -35 13 C-31.89298762 9.89298762 -29.17661167 8.60167779 -25.1875 7.0625 C-24.53040039 6.80452637 -23.87330078 6.54655273 -23.19628906 6.28076172 C-6.83582325 0 -6.83582325 0 0 0 Z " fill="#BEE0DB" transform="translate(2046,346)"/>
<path d="M0 0 C0 7.59 0 15.18 0 23 C-0.33 23.33 -0.66 23.66 -1 24 C-8.26 24 -15.52 24 -23 24 C-20.20337142 19.80505712 -18.1282769 16.88358723 -14.671875 13.4765625 C-13.47304687 12.28740234 -13.47304687 12.28740234 -12.25 11.07421875 C-11.425 10.26597656 -10.6 9.45773437 -9.75 8.625 C-8.90953125 7.79355469 -8.0690625 6.96210937 -7.203125 6.10546875 C-1.02747845 0 -1.02747845 0 0 0 Z " fill="#BEE0DB" transform="translate(2129,508)"/>
<path d="M0 0 C-11.42857143 10 -11.42857143 10 -16 10 C-16.66 11.32 -17.32 12.64 -18 14 C-18.66 14 -19.32 14 -20 14 C-20.2371875 14.60328125 -20.474375 15.2065625 -20.71875 15.828125 C-22.29609572 18.50191836 -23.77169611 19.31498302 -26.5 20.75 C-27.2940625 21.17796875 -28.088125 21.6059375 -28.90625 22.046875 C-31 23 -31 23 -33 23 C-32.01 19.04 -31.02 15.08 -30 11 C-3 -1 -3 -1 0 0 Z " fill="#BEE0DB" transform="translate(2078,409)"/>
<path d="M0 0 C0 0.99 0 1.98 0 3 C-4.455 5.97 -4.455 5.97 -9 9 C-9 7.02 -9 5.04 -9 3 C-6.03 2.01 -3.06 1.02 0 0 Z " fill="#C1DDD8" transform="translate(2063,339)"/>
<path d="M0 0 C2.31 0 4.62 0 7 0 C6.21516341 1.48280196 5.42190666 2.9611498 4.625 4.4375 C4.18414063 5.26121094 3.74328125 6.08492187 3.2890625 6.93359375 C2 9 2 9 0 10 C0 6.7 0 3.4 0 0 Z " fill="#B8DED9" transform="translate(1269,186)"/>
</svg>
